.
..............................Site Info...........................

 -   http://www.scenetime.com  *_*   


Scenetime .Always on time . friendly online private torrent community ..

     We care to share . Join us on  http://www.scenetime.com 

    Be the first to get new release at  http://www.scenetime.com

        Seed back for speed


...................................NFO:.................................................[img]http://i.imgur.com/RAs5h.jpg[/img]

[b]This.Means.War.2012.UNRATED.BRRiP.XViD.AC3-ADTRG[/b]

Two top CIA operatives wage an epic battle against one another after they discover they are dating the same woman. 

[url]http://www.imdb.com/title/tt1596350/[/url]

Source -  This Means War 2012 UNRATED 1080p BluRay x264-SPARKS   Thanks

Complete name                            : This.Means.War.2012.UNRATED.BRRiP.XViD.AC3-ADTRG.avi
Format                                   : AVI
Format/Info                              : Audio Video Interleave
File size                                : 1.53 GiB
Duration                                 : 1h 44mn
Overall bit rate                         : 2 106 Kbps

Video
ID                                       : 0
Format                                   : MPEG-4 Visual
Codec ID                                 : XVID
Duration                                 : 1h 44mn
Bit rate                                 : 1 713 Kbps
Width                                    : 720 pixels
Height                                   : 304 pixels
Display aspect ratio                     : 2.35:1
Frame rate                               : 23.976 fps
Stream size                              : 1.24 GiB (81%)

Audio
ID                                       : 1
Format                                   : AC-3
Duration                                 : 1h 44mn
Bit rate                                 : 384 Kbps
Channel(s)                               : 6 channels
Channel positions                        : Front: L C R, Side: L R, LFE
Sampling rate                            : 48.0 KHz
Stream size                              : 286 MiB (18%)



Encoder - LiMeY
Good things come in small packages, So feel the wrath of my compression

[img]http://i.imgur.com/nxuPn.jpg[/img]



[IMG]http://i.imgur.com/2739o.gif?1?8830[/IMG]

Dont fear the Atomic Dragon, Embrace it  :)


Greetz to DragonMaster,cOOkies,Mr Geek,AnimeKing,Cush,NoWoRRiEs Rayne, Mr & Mrs IrNbRu and the rest of the crew

Respect to CM8,Goon,Hope,mSD,InfernO,legend-rg and maybe a few more ;)